HIERARCHY
ROOT root
{
	OFFSET 0.000000 0.000000 0.000000
	CHANNELS 6 Xposition Yposition Zposition Zrotation Yrotation Xrotation
	JOINT lhip
	{
		OFFSET 0.058581 -0.082280 -0.017664
		CHANNELS 3 Zrotation Yrotation Xrotation
		JOINT lknee
		{
			OFFSET 0.043451 -0.386469 0.008037
			CHANNELS 3 Zrotation Yrotation Xrotation
			JOINT lankle
			{
				OFFSET -0.014790 -0.426874 -0.037428
				CHANNELS 3 Zrotation Yrotation Xrotation
				JOINT ltoe
				{
					OFFSET 0.041054 -0.060286 0.122042
					CHANNELS 3 Zrotation Yrotation Xrotation
					End Site
					{
						OFFSET 0.000000 0.000000 0.000000
					}
				}
			}
		}
	}
	JOINT rhip
	{
		OFFSET -0.060310 -0.090513 -0.013543
		CHANNELS 3 Zrotation Yrotation Xrotation
		JOINT rknee
		{
			OFFSET -0.043257 -0.383688 -0.004843
			CHANNELS 3 Zrotation Yrotation Xrotation
			JOINT rankle
			{
				OFFSET 0.019056 -0.420046 -0.034562
				CHANNELS 3 Zrotation Yrotation Xrotation
				JOINT rtoe
				{
					OFFSET -0.034840 -0.062106 0.130323
					CHANNELS 3 Zrotation Yrotation Xrotation
					End Site
					{
						OFFSET 0.000000 0.000000 0.000000
					}
				}
			}
		}
	}
	JOINT lowerback
	{
		OFFSET 0.004439 0.124404 -0.038385
		CHANNELS 3 Zrotation Yrotation Xrotation
		JOINT upperback
		{
			OFFSET 0.004488 0.137956 0.026820
			CHANNELS 3 Zrotation Yrotation Xrotation
			JOINT chest
			{
				OFFSET -0.002265 0.056032 0.002855
				CHANNELS 3 Zrotation Yrotation Xrotation
				JOINT lowerneck
				{
					OFFSET -0.013390 0.211636 -0.033468
					CHANNELS 3 Zrotation Yrotation Xrotation
					JOINT upperneck
					{
						OFFSET 0.010113 0.088937 0.050410
						CHANNELS 3 Zrotation Yrotation Xrotation
						End Site
						{
							OFFSET 0.000000 0.000000 0.000000
						}
					}
				}
				JOINT lclavicle
				{
					OFFSET 0.071702 0.114000 -0.018898
					CHANNELS 3 Zrotation Yrotation Xrotation
					JOINT lshoulder
					{
						OFFSET 0.122921 0.045205 -0.019046
						CHANNELS 3 Zrotation Yrotation Xrotation
						JOINT lelbow
						{
							OFFSET 0.255332 -0.015649 -0.022946
							CHANNELS 3 Zrotation Yrotation Xrotation
							JOINT lwrist
							{
								OFFSET 0.265709 0.012698 -0.007375
								CHANNELS 3 Zrotation Yrotation Xrotation
								End Site
								{
									OFFSET 0.000000 0.000000 0.000000
								}
							}
						}
					}
				}
				JOINT rclavicle
				{
					OFFSET -0.082954 0.112472 -0.023707
					CHANNELS 3 Zrotation Yrotation Xrotation
					JOINT rshoulder
					{
						OFFSET -0.113228 0.046853 -0.008472
						CHANNELS 3 Zrotation Yrotation Xrotation
						JOINT relbow
						{
							OFFSET -0.260127 -0.014369 -0.031269
							CHANNELS 3 Zrotation Yrotation Xrotation
							JOINT rwrist
							{
								OFFSET -0.269108 0.006794 -0.006027
								CHANNELS 3 Zrotation Yrotation Xrotation
								End Site
								{
									OFFSET 0.000000 0.000000 0.000000
								}
							}
						}
					}
				}
			}
		}
	}
}
MOTION
Frames: 10
Frame Time: 0.033333
0.263277 0.615862 1.060474 -43.178611 -8.650220 95.903833 6.427744 7.898090 5.046559 0.482880 -1.301503 6.925976 -15.672116 13.979601 26.870093 0.000000 -0.000000 0.000000 -15.513894 -9.224853 -16.868628 0.846074 -4.271686 12.785845 12.148956 -0.461347 20.823224 0.000000 -0.000000 0.000000 8.120943 1.365808 18.706119 8.814872 1.399604 -1.188326 9.147345 5.848765 -9.044809 -9.712052 2.532794 -19.478317 2.161473 -2.528344 -13.934804 14.347146 -13.488649 -19.124194 3.261974 -15.321262 -21.011652 80.599284 -55.662681 -67.525051 18.041650 -27.727213 7.180396 11.080352 26.734189 -4.606145 29.119406 15.733030 -15.141654 -20.630857 9.195170 -52.093072 0.098538 13.717033 -23.599370 
0.252862 0.616506 1.060111 -42.022116 -8.811506 95.469262 7.295990 7.794771 5.146844 0.698594 -2.573567 6.676607 -16.569599 14.082121 28.719860 0.000000 -0.000000 0.000000 -15.571205 -9.142609 -15.426700 1.258993 -3.925839 12.461448 11.682096 -0.240507 19.762840 0.000000 -0.000000 0.000000 7.871586 1.563649 18.297567 8.892197 0.921450 -0.765500 9.166689 5.733802 -9.282674 -9.979239 2.281761 -19.729403 2.157780 -3.656640 -13.910375 15.082335 -14.451887 -19.933957 4.198709 -15.942289 -21.237755 76.508570 -55.205476 -63.769952 16.590120 -27.359819 8.713695 10.760247 26.774156 -4.929072 28.852112 14.590155 -15.473660 -20.266189 8.204028 -52.108642 0.627837 13.267699 -23.264157 
0.243380 0.617531 1.057198 -40.912649 -8.952977 94.963474 8.020611 7.483351 4.879240 0.793521 -3.863320 7.459201 -16.961002 14.139929 29.907247 0.000000 -0.000000 0.000000 -15.499075 -9.053390 -14.282773 1.472285 -3.595890 12.928637 11.139748 0.047343 17.709975 0.000000 -0.000000 0.000000 7.449050 1.888976 17.993768 9.041718 0.522394 -0.374602 9.228015 5.700777 -9.462734 -9.993707 2.224094 -20.089521 2.472575 -4.857050 -13.843451 15.728443 -15.475133 -20.738272 5.270942 -16.718168 -21.250954 72.406970 -54.754866 -60.766162 15.790027 -27.361325 8.869450 10.570263 26.852190 -5.482987 28.546138 12.977752 -15.416011 -20.027143 7.475777 -52.313282 0.634033 12.972338 -23.390345 
0.234289 0.619105 1.053799 -40.262875 -8.939788 94.614758 8.524533 6.916109 4.721109 1.048151 -4.397093 8.334091 -16.922300 14.775805 30.503677 0.000000 -0.000000 0.000000 -15.136911 -8.821299 -13.439998 1.656153 -3.428198 13.390933 10.295326 0.170803 15.356537 0.000000 -0.000000 0.000000 6.959729 2.304748 17.680533 9.325180 0.155579 -0.024789 9.321934 5.561004 -9.580422 -9.788014 2.528998 -20.136230 2.419500 -5.676756 -14.041067 16.266078 -15.947747 -21.150029 6.017706 -17.135196 -21.110453 69.299870 -54.585286 -58.367493 15.776774 -27.231313 8.897136 10.930579 26.798114 -5.539763 28.189900 12.127574 -15.280762 -19.953723 6.995616 -52.659518 -0.070767 12.710120 -23.883384 
0.226243 0.620498 1.050995 -40.473240 -8.685252 94.567397 8.980630 6.665630 5.001963 1.120179 -4.986706 8.731858 -16.709171 14.579534 29.888989 0.000000 -0.000000 0.000000 -14.490040 -8.435837 -13.205490 1.950131 -3.093824 13.896372 9.712680 0.347751 13.478364 0.000000 -0.000000 0.000000 6.668382 2.516115 17.426785 9.543939 0.227238 0.330789 9.346671 5.589773 -9.487570 -9.396502 2.949409 -20.468045 2.123600 -6.330100 -14.277530 16.358270 -15.744255 -21.434329 6.489088 -17.481592 -20.922973 67.724022 -54.698276 -57.116772 15.076429 -27.056269 8.713874 11.399378 26.536633 -5.700417 28.053248 11.949201 -15.158024 -19.981244 6.543234 -52.686421 0.457855 12.746238 -24.103329 
0.219821 0.621841 1.048751 -40.780981 -8.215872 94.891312 9.304051 6.372636 4.867948 1.541507 -4.847459 8.973741 -16.054418 15.035280 29.244637 0.000000 -0.000000 0.000000 -13.654584 -7.918147 -13.334705 2.087277 -2.957928 14.075531 9.306564 0.496238 12.242825 0.000000 -0.000000 0.000000 6.796334 2.359997 17.080867 9.634942 0.207825 0.441819 9.278727 5.727013 -9.568655 -9.519815 2.925762 -20.180723 2.424608 -6.575365 -15.137987 16.546581 -15.644253 -21.780597 6.373017 -17.305185 -20.581744 66.700463 -55.120127 -56.056028 14.491977 -26.769359 9.388856 11.748108 26.606503 -5.354280 28.343508 11.656685 -15.240022 -19.947559 6.526464 -52.820908 0.072023 12.376251 -24.086087 
0.213116 0.622495 1.047274 -41.225554 -8.072761 94.900982 9.348829 6.207441 5.452633 1.710820 -4.752091 8.732443 -15.904932 15.285693 28.700235 0.000000 -0.000000 0.000000 -13.317981 -7.364888 -12.854379 2.151714 -2.875701 13.905974 9.644832 0.723430 11.358380 0.000000 -0.000000 0.000000 6.409715 2.322980 16.901123 9.818606 0.151118 0.911188 9.476618 5.810259 -9.669721 -8.974881 2.638685 -20.358590 2.557330 -7.234671 -15.706591 16.283199 -15.422158 -21.847617 6.141330 -17.576250 -20.520242 67.006182 -54.932132 -56.153921 13.826758 -26.445730 9.639500 11.946255 26.531525 -5.188992 28.955496 11.601677 -14.952131 -20.035326 6.349717 -52.964885 -0.023537 12.502405 -24.515715 
0.207491 0.623250 1.045568 -41.182454 -8.265357 94.890331 9.247709 6.078116 5.729260 1.906522 -3.969197 8.490682 -15.506439 16.131924 28.820493 0.000000 -0.000000 0.000000 -13.352318 -7.252500 -12.331843 2.336511 -2.998902 13.695437 9.620970 0.922884 10.294574 0.000000 -0.000000 0.000000 6.015376 2.373744 16.681148 9.869520 -0.320895 1.193707 9.362486 5.667772 -9.549568 -8.969349 3.181859 -20.851251 2.926576 -7.880540 -16.534302 16.596933 -15.291814 -21.975515 6.204932 -17.788610 -20.576388 66.636452 -54.511396 -56.141474 15.032095 -26.297367 9.449479 12.519740 26.284375 -5.084915 29.511965 11.815328 -14.537691 -20.349907 6.353466 -52.970629 -0.341171 12.094442 -24.602159 
0.203320 0.624900 1.043775 -41.018238 -8.161326 95.038380 9.600701 6.148110 5.441290 1.863361 -4.010516 8.715923 -15.325974 15.965308 28.940977 0.000000 -0.000000 0.000000 -13.003294 -7.283492 -12.297376 2.480325 -3.104980 13.751974 9.204473 1.002684 9.456170 0.000000 -0.000000 0.000000 6.099383 2.198092 16.606083 9.920929 -0.547981 0.978342 9.282572 5.604724 -9.455456 -9.273783 3.263289 -20.941116 3.162786 -8.229862 -16.966253 16.730859 -15.542394 -21.876961 6.405441 -17.907584 -20.789705 65.697823 -54.061863 -55.664945 15.402687 -25.997647 8.960442 13.032755 26.225670 -4.747450 29.756894 11.491826 -14.416331 -20.561195 6.795959 -52.718793 -0.594693 11.903531 -24.752210 
0.199687 0.626138 1.042551 -41.304905 -8.073392 95.145151 9.687586 6.011230 5.419922 1.938659 -4.607122 8.834212 -14.930438 15.743958 29.176625 0.000000 -0.000000 0.000000 -12.740681 -7.104381 -12.378497 2.588560 -2.925999 13.950469 9.009484 0.985815 8.683717 0.000000 -0.000000 0.000000 6.099492 2.163990 16.556969 10.040048 -0.519024 1.059782 9.341943 5.543434 -9.488975 -9.236430 3.344829 -20.962018 2.811930 -8.056952 -17.075714 16.600294 -15.586381 -21.904029 6.624334 -17.882099 -20.693980 65.044429 -54.140039 -55.854148 15.297433 -25.591900 8.362847 13.424897 26.183153 -4.615051 29.887993 11.280791 -14.007443 -20.722996 7.170367 -53.134629 -0.486579 11.949528 -24.689716 
